<mxfile host="app.diagrams.net" modified="2022-10-12T21:57:39.716Z" agent="5.0 (Windows NT 10.0; Win64; x64) AppleWebKit/537.36 (KHTML, like Gecko) Chrome/106.0.0.0 Safari/537.36 Edg/106.0.1370.42" etag="AKCPJc-0f1QOuP5SeQqY" version="20.4.0" type="github" pages="2">
  <diagram id="mCQON5RRBXFTeQH2ZLTu" name="Page-1">
    <mxGraphModel dx="959" dy="1221" grid="1" gridSize="10" guides="1" tooltips="1" connect="1" arrows="1" fold="1" page="1" pageScale="1" pageWidth="850" pageHeight="1100" math="0" shadow="0">
      <root>
        <mxCell id="0" />
        <mxCell id="1" parent="0" />
        <mxCell id="SHi3CykzPSjSsFWDdA-X-4" style="edgeStyle=orthogonalEdgeStyle;rounded=1;orthogonalLoop=1;jettySize=auto;html=1;curved=1;" edge="1" parent="1" source="SHi3CykzPSjSsFWDdA-X-3" target="SHi3CykzPSjSsFWDdA-X-5">
          <mxGeometry relative="1" as="geometry">
            <mxPoint x="660" y="190" as="targetPoint" />
          </mxGeometry>
        </mxCell>
        <mxCell id="SHi3CykzPSjSsFWDdA-X-3" value="ask the user if they want to play&amp;nbsp;" style="rounded=1;whiteSpace=wrap;html=1;" vertex="1" parent="1">
          <mxGeometry x="600" y="80" width="120" height="60" as="geometry" />
        </mxCell>
        <mxCell id="SHi3CykzPSjSsFWDdA-X-6" style="edgeStyle=orthogonalEdgeStyle;rounded=1;orthogonalLoop=1;jettySize=auto;html=1;curved=1;" edge="1" parent="1" source="SHi3CykzPSjSsFWDdA-X-5" target="SHi3CykzPSjSsFWDdA-X-7">
          <mxGeometry relative="1" as="geometry">
            <mxPoint x="660" y="260" as="targetPoint" />
          </mxGeometry>
        </mxCell>
        <mxCell id="SHi3CykzPSjSsFWDdA-X-5" value="generate 2 card for the user" style="rounded=1;whiteSpace=wrap;html=1;fillColor=#dae8fc;strokeColor=#6c8ebf;" vertex="1" parent="1">
          <mxGeometry x="600" y="160" width="120" height="60" as="geometry" />
        </mxCell>
        <mxCell id="SHi3CykzPSjSsFWDdA-X-8" style="edgeStyle=orthogonalEdgeStyle;rounded=1;orthogonalLoop=1;jettySize=auto;html=1;curved=1;" edge="1" parent="1" source="SHi3CykzPSjSsFWDdA-X-7" target="SHi3CykzPSjSsFWDdA-X-9">
          <mxGeometry relative="1" as="geometry">
            <mxPoint x="540" y="340" as="targetPoint" />
          </mxGeometry>
        </mxCell>
        <mxCell id="SHi3CykzPSjSsFWDdA-X-10" style="edgeStyle=orthogonalEdgeStyle;rounded=1;orthogonalLoop=1;jettySize=auto;html=1;curved=1;" edge="1" parent="1" source="SHi3CykzPSjSsFWDdA-X-7" target="SHi3CykzPSjSsFWDdA-X-11">
          <mxGeometry relative="1" as="geometry">
            <mxPoint x="660" y="330" as="targetPoint" />
          </mxGeometry>
        </mxCell>
        <mxCell id="SHi3CykzPSjSsFWDdA-X-7" value="check if user card is over 21" style="rounded=1;whiteSpace=wrap;html=1;fillColor=#dae8fc;strokeColor=#6c8ebf;" vertex="1" parent="1">
          <mxGeometry x="600" y="250" width="120" height="60" as="geometry" />
        </mxCell>
        <mxCell id="SHi3CykzPSjSsFWDdA-X-9" value="user busted game over" style="rounded=1;whiteSpace=wrap;html=1;fillColor=#f8cecc;strokeColor=#b85450;" vertex="1" parent="1">
          <mxGeometry x="425" y="335" width="120" height="60" as="geometry" />
        </mxCell>
        <mxCell id="SHi3CykzPSjSsFWDdA-X-28" style="edgeStyle=orthogonalEdgeStyle;rounded=1;orthogonalLoop=1;jettySize=auto;html=1;curved=1;" edge="1" parent="1" source="SHi3CykzPSjSsFWDdA-X-11" target="SHi3CykzPSjSsFWDdA-X-29">
          <mxGeometry relative="1" as="geometry">
            <mxPoint x="660" y="400" as="targetPoint" />
          </mxGeometry>
        </mxCell>
        <mxCell id="SHi3CykzPSjSsFWDdA-X-105" value="" style="edgeStyle=orthogonalEdgeStyle;curved=1;rounded=1;orthogonalLoop=1;jettySize=auto;html=1;" edge="1" parent="1" source="SHi3CykzPSjSsFWDdA-X-11" target="SHi3CykzPSjSsFWDdA-X-104">
          <mxGeometry relative="1" as="geometry" />
        </mxCell>
        <mxCell id="SHi3CykzPSjSsFWDdA-X-11" value="check if user card is 21&amp;nbsp;" style="rounded=1;whiteSpace=wrap;html=1;fillColor=#dae8fc;strokeColor=#6c8ebf;" vertex="1" parent="1">
          <mxGeometry x="600" y="350" width="120" height="60" as="geometry" />
        </mxCell>
        <mxCell id="SHi3CykzPSjSsFWDdA-X-13" value="user won with blackjack" style="rounded=1;whiteSpace=wrap;html=1;fillColor=#fff2cc;strokeColor=#d6b656;" vertex="1" parent="1">
          <mxGeometry x="1250" y="615" width="120" height="60" as="geometry" />
        </mxCell>
        <mxCell id="SHi3CykzPSjSsFWDdA-X-16" style="edgeStyle=orthogonalEdgeStyle;rounded=1;orthogonalLoop=1;jettySize=auto;html=1;curved=1;" edge="1" parent="1" source="SHi3CykzPSjSsFWDdA-X-14" target="SHi3CykzPSjSsFWDdA-X-17">
          <mxGeometry relative="1" as="geometry">
            <mxPoint x="1020" y="650" as="targetPoint" />
          </mxGeometry>
        </mxCell>
        <mxCell id="SHi3CykzPSjSsFWDdA-X-25" style="edgeStyle=orthogonalEdgeStyle;rounded=1;orthogonalLoop=1;jettySize=auto;html=1;entryX=0.5;entryY=0;entryDx=0;entryDy=0;curved=1;" edge="1" parent="1" source="SHi3CykzPSjSsFWDdA-X-14" target="SHi3CykzPSjSsFWDdA-X-13">
          <mxGeometry relative="1" as="geometry">
            <mxPoint x="1220" y="590" as="targetPoint" />
            <Array as="points">
              <mxPoint x="1310" y="570" />
            </Array>
          </mxGeometry>
        </mxCell>
        <mxCell id="SHi3CykzPSjSsFWDdA-X-14" value="check computer hand is over 21" style="rounded=1;whiteSpace=wrap;html=1;fillColor=#e1d5e7;strokeColor=#9673a6;" vertex="1" parent="1">
          <mxGeometry x="960" y="560" width="120" height="60" as="geometry" />
        </mxCell>
        <mxCell id="SHi3CykzPSjSsFWDdA-X-46" style="edgeStyle=orthogonalEdgeStyle;rounded=1;orthogonalLoop=1;jettySize=auto;html=1;exitX=1;exitY=0.5;exitDx=0;exitDy=0;entryX=0;entryY=0.5;entryDx=0;entryDy=0;fontSize=15;curved=1;" edge="1" parent="1" source="SHi3CykzPSjSsFWDdA-X-17" target="SHi3CykzPSjSsFWDdA-X-26">
          <mxGeometry relative="1" as="geometry" />
        </mxCell>
        <mxCell id="SHi3CykzPSjSsFWDdA-X-17" value="check computer hand is 21" style="rounded=1;whiteSpace=wrap;html=1;fillColor=#e1d5e7;strokeColor=#9673a6;" vertex="1" parent="1">
          <mxGeometry x="960" y="680" width="120" height="60" as="geometry" />
        </mxCell>
        <mxCell id="SHi3CykzPSjSsFWDdA-X-110" style="edgeStyle=orthogonalEdgeStyle;curved=1;rounded=1;orthogonalLoop=1;jettySize=auto;html=1;entryX=0.5;entryY=0;entryDx=0;entryDy=0;" edge="1" parent="1" source="SHi3CykzPSjSsFWDdA-X-19" target="SHi3CykzPSjSsFWDdA-X-14">
          <mxGeometry relative="1" as="geometry" />
        </mxCell>
        <mxCell id="SHi3CykzPSjSsFWDdA-X-19" value="add card until total more then 16&amp;nbsp;" style="rounded=1;whiteSpace=wrap;html=1;fillColor=#e1d5e7;strokeColor=#9673a6;" vertex="1" parent="1">
          <mxGeometry x="960" y="450" width="120" height="60" as="geometry" />
        </mxCell>
        <mxCell id="SHi3CykzPSjSsFWDdA-X-26" value="the game is a tie" style="rounded=1;whiteSpace=wrap;html=1;fillColor=#d5e8d4;strokeColor=#82b366;" vertex="1" parent="1">
          <mxGeometry x="1250" y="700" width="120" height="60" as="geometry" />
        </mxCell>
        <mxCell id="SHi3CykzPSjSsFWDdA-X-30" style="edgeStyle=orthogonalEdgeStyle;rounded=1;orthogonalLoop=1;jettySize=auto;html=1;curved=1;" edge="1" parent="1" source="SHi3CykzPSjSsFWDdA-X-29" target="SHi3CykzPSjSsFWDdA-X-31">
          <mxGeometry relative="1" as="geometry">
            <mxPoint x="760" y="500" as="targetPoint" />
          </mxGeometry>
        </mxCell>
        <mxCell id="SHi3CykzPSjSsFWDdA-X-29" value="ask user if they want to hit or stand" style="rounded=1;whiteSpace=wrap;html=1;" vertex="1" parent="1">
          <mxGeometry x="600" y="470" width="120" height="60" as="geometry" />
        </mxCell>
        <mxCell id="SHi3CykzPSjSsFWDdA-X-115" style="edgeStyle=orthogonalEdgeStyle;curved=1;rounded=1;orthogonalLoop=1;jettySize=auto;html=1;startArrow=none;" edge="1" parent="1" source="SHi3CykzPSjSsFWDdA-X-116" target="SHi3CykzPSjSsFWDdA-X-65">
          <mxGeometry relative="1" as="geometry" />
        </mxCell>
        <mxCell id="SHi3CykzPSjSsFWDdA-X-117" value="" style="edgeStyle=orthogonalEdgeStyle;curved=1;rounded=1;orthogonalLoop=1;jettySize=auto;html=1;" edge="1" parent="1" source="SHi3CykzPSjSsFWDdA-X-31" target="SHi3CykzPSjSsFWDdA-X-116">
          <mxGeometry relative="1" as="geometry" />
        </mxCell>
        <mxCell id="SHi3CykzPSjSsFWDdA-X-31" value="add card to the user and computer" style="rounded=1;whiteSpace=wrap;html=1;fillColor=#dae8fc;strokeColor=#6c8ebf;" vertex="1" parent="1">
          <mxGeometry x="760" y="550" width="120" height="60" as="geometry" />
        </mxCell>
        <mxCell id="SHi3CykzPSjSsFWDdA-X-33" value="&lt;b&gt;&lt;font style=&quot;font-size: 15px;&quot;&gt;&lt;sub&gt;Yes&lt;/sub&gt;&lt;/font&gt;&lt;/b&gt;" style="text;html=1;strokeColor=none;fillColor=none;align=center;verticalAlign=middle;whiteSpace=wrap;rounded=1;" vertex="1" parent="1">
          <mxGeometry x="790" y="645" width="60" height="30" as="geometry" />
        </mxCell>
        <mxCell id="SHi3CykzPSjSsFWDdA-X-35" value="&lt;b&gt;&lt;font style=&quot;font-size: 15px;&quot;&gt;&lt;sub&gt;Yes&lt;/sub&gt;&lt;/font&gt;&lt;/b&gt;" style="text;html=1;strokeColor=none;fillColor=none;align=center;verticalAlign=middle;whiteSpace=wrap;rounded=1;" vertex="1" parent="1">
          <mxGeometry x="1100" y="680" width="60" height="30" as="geometry" />
        </mxCell>
        <mxCell id="SHi3CykzPSjSsFWDdA-X-36" value="&lt;b&gt;&lt;font style=&quot;font-size: 15px;&quot;&gt;&lt;sub&gt;Yes&lt;/sub&gt;&lt;/font&gt;&lt;/b&gt;" style="text;html=1;strokeColor=none;fillColor=none;align=center;verticalAlign=middle;whiteSpace=wrap;rounded=1;" vertex="1" parent="1">
          <mxGeometry x="540" y="250" width="60" height="30" as="geometry" />
        </mxCell>
        <mxCell id="SHi3CykzPSjSsFWDdA-X-37" value="&lt;b&gt;&lt;font style=&quot;font-size: 15px;&quot;&gt;&lt;sub&gt;No&lt;/sub&gt;&lt;/font&gt;&lt;/b&gt;" style="text;html=1;strokeColor=none;fillColor=none;align=center;verticalAlign=middle;whiteSpace=wrap;rounded=1;" vertex="1" parent="1">
          <mxGeometry x="980" y="630" width="60" height="30" as="geometry" />
        </mxCell>
        <mxCell id="SHi3CykzPSjSsFWDdA-X-44" value="&lt;b&gt;&lt;font style=&quot;font-size: 15px;&quot;&gt;&lt;sub&gt;No&lt;/sub&gt;&lt;/font&gt;&lt;/b&gt;" style="text;html=1;strokeColor=none;fillColor=none;align=center;verticalAlign=middle;whiteSpace=wrap;rounded=1;" vertex="1" parent="1">
          <mxGeometry x="650" y="420" width="60" height="30" as="geometry" />
        </mxCell>
        <mxCell id="SHi3CykzPSjSsFWDdA-X-51" value="&lt;b&gt;&lt;font style=&quot;font-size: 15px;&quot;&gt;&lt;sub&gt;hit&lt;/sub&gt;&lt;/font&gt;&lt;/b&gt;" style="text;html=1;strokeColor=none;fillColor=none;align=center;verticalAlign=middle;whiteSpace=wrap;rounded=1;" vertex="1" parent="1">
          <mxGeometry x="710" y="470" width="60" height="30" as="geometry" />
        </mxCell>
        <mxCell id="SHi3CykzPSjSsFWDdA-X-68" value="" style="edgeStyle=orthogonalEdgeStyle;rounded=1;orthogonalLoop=1;jettySize=auto;html=1;fontSize=15;curved=1;" edge="1" parent="1" source="SHi3CykzPSjSsFWDdA-X-65" target="SHi3CykzPSjSsFWDdA-X-67">
          <mxGeometry relative="1" as="geometry" />
        </mxCell>
        <mxCell id="SHi3CykzPSjSsFWDdA-X-92" value="" style="edgeStyle=orthogonalEdgeStyle;rounded=1;orthogonalLoop=1;jettySize=auto;html=1;fontSize=15;curved=1;" edge="1" parent="1" source="SHi3CykzPSjSsFWDdA-X-65" target="SHi3CykzPSjSsFWDdA-X-91">
          <mxGeometry relative="1" as="geometry" />
        </mxCell>
        <mxCell id="SHi3CykzPSjSsFWDdA-X-65" value="check computer busted" style="whiteSpace=wrap;html=1;rounded=1;" vertex="1" parent="1">
          <mxGeometry x="587.5" y="700" width="120" height="60" as="geometry" />
        </mxCell>
        <mxCell id="SHi3CykzPSjSsFWDdA-X-77" style="edgeStyle=orthogonalEdgeStyle;rounded=1;orthogonalLoop=1;jettySize=auto;html=1;entryX=0.5;entryY=0;entryDx=0;entryDy=0;fontSize=15;curved=1;" edge="1" parent="1" source="SHi3CykzPSjSsFWDdA-X-67">
          <mxGeometry relative="1" as="geometry">
            <mxPoint x="647.4999999999998" y="920" as="targetPoint" />
          </mxGeometry>
        </mxCell>
        <mxCell id="SHi3CykzPSjSsFWDdA-X-86" value="" style="edgeStyle=orthogonalEdgeStyle;rounded=1;orthogonalLoop=1;jettySize=auto;html=1;fontSize=15;curved=1;" edge="1" parent="1" source="SHi3CykzPSjSsFWDdA-X-67" target="SHi3CykzPSjSsFWDdA-X-85">
          <mxGeometry relative="1" as="geometry" />
        </mxCell>
        <mxCell id="SHi3CykzPSjSsFWDdA-X-67" value="check computer blackjack" style="whiteSpace=wrap;html=1;rounded=1;" vertex="1" parent="1">
          <mxGeometry x="587.5" y="790" width="120" height="60" as="geometry" />
        </mxCell>
        <mxCell id="SHi3CykzPSjSsFWDdA-X-75" value="" style="edgeStyle=orthogonalEdgeStyle;rounded=1;orthogonalLoop=1;jettySize=auto;html=1;fontSize=15;curved=1;" edge="1" parent="1" target="SHi3CykzPSjSsFWDdA-X-74">
          <mxGeometry relative="1" as="geometry">
            <mxPoint x="707.4999999999998" y="950" as="sourcePoint" />
          </mxGeometry>
        </mxCell>
        <mxCell id="SHi3CykzPSjSsFWDdA-X-80" value="" style="edgeStyle=orthogonalEdgeStyle;rounded=1;orthogonalLoop=1;jettySize=auto;html=1;fontSize=15;curved=1;" edge="1" parent="1" target="SHi3CykzPSjSsFWDdA-X-79">
          <mxGeometry relative="1" as="geometry">
            <mxPoint x="647.4999999999998" y="980" as="sourcePoint" />
          </mxGeometry>
        </mxCell>
        <mxCell id="SHi3CykzPSjSsFWDdA-X-76" style="edgeStyle=orthogonalEdgeStyle;rounded=1;orthogonalLoop=1;jettySize=auto;html=1;fontSize=15;entryX=1;entryY=0.75;entryDx=0;entryDy=0;curved=1;" edge="1" parent="1" source="SHi3CykzPSjSsFWDdA-X-74" target="SHi3CykzPSjSsFWDdA-X-65">
          <mxGeometry relative="1" as="geometry">
            <mxPoint x="807.5" y="740" as="targetPoint" />
            <Array as="points">
              <mxPoint x="847.5" y="745" />
            </Array>
          </mxGeometry>
        </mxCell>
        <mxCell id="SHi3CykzPSjSsFWDdA-X-74" value="add card to computer hand" style="whiteSpace=wrap;html=1;rounded=1;" vertex="1" parent="1">
          <mxGeometry x="787.5" y="920" width="120" height="60" as="geometry" />
        </mxCell>
        <mxCell id="SHi3CykzPSjSsFWDdA-X-82" value="" style="edgeStyle=orthogonalEdgeStyle;rounded=1;orthogonalLoop=1;jettySize=auto;html=1;fontSize=15;curved=1;" edge="1" parent="1" source="SHi3CykzPSjSsFWDdA-X-79" target="SHi3CykzPSjSsFWDdA-X-81">
          <mxGeometry relative="1" as="geometry" />
        </mxCell>
        <mxCell id="SHi3CykzPSjSsFWDdA-X-84" value="" style="edgeStyle=orthogonalEdgeStyle;rounded=1;orthogonalLoop=1;jettySize=auto;html=1;fontSize=15;curved=1;" edge="1" parent="1" source="SHi3CykzPSjSsFWDdA-X-79" target="SHi3CykzPSjSsFWDdA-X-83">
          <mxGeometry relative="1" as="geometry" />
        </mxCell>
        <mxCell id="SHi3CykzPSjSsFWDdA-X-79" value="check if card is equal&amp;nbsp;" style="whiteSpace=wrap;html=1;rounded=1;" vertex="1" parent="1">
          <mxGeometry x="587.5" y="1030" width="120" height="60" as="geometry" />
        </mxCell>
        <mxCell id="SHi3CykzPSjSsFWDdA-X-81" value="the game is a tie" style="whiteSpace=wrap;html=1;rounded=1;fillColor=#d5e8d4;strokeColor=#82b366;" vertex="1" parent="1">
          <mxGeometry x="787.5" y="1030" width="120" height="60" as="geometry" />
        </mxCell>
        <mxCell id="SHi3CykzPSjSsFWDdA-X-88" value="" style="edgeStyle=orthogonalEdgeStyle;rounded=1;orthogonalLoop=1;jettySize=auto;html=1;fontSize=15;curved=1;" edge="1" parent="1" source="SHi3CykzPSjSsFWDdA-X-83" target="SHi3CykzPSjSsFWDdA-X-87">
          <mxGeometry relative="1" as="geometry" />
        </mxCell>
        <mxCell id="SHi3CykzPSjSsFWDdA-X-90" value="" style="edgeStyle=orthogonalEdgeStyle;rounded=1;orthogonalLoop=1;jettySize=auto;html=1;fontSize=15;curved=1;" edge="1" parent="1" source="SHi3CykzPSjSsFWDdA-X-83" target="SHi3CykzPSjSsFWDdA-X-89">
          <mxGeometry relative="1" as="geometry" />
        </mxCell>
        <mxCell id="SHi3CykzPSjSsFWDdA-X-83" value="check if computer hand is greater" style="whiteSpace=wrap;html=1;rounded=1;" vertex="1" parent="1">
          <mxGeometry x="587.5" y="1120" width="120" height="60" as="geometry" />
        </mxCell>
        <mxCell id="SHi3CykzPSjSsFWDdA-X-85" value="computer blackjack game over" style="whiteSpace=wrap;html=1;rounded=1;fillColor=#f8cecc;strokeColor=#b85450;" vertex="1" parent="1">
          <mxGeometry x="412.5" y="790" width="120" height="60" as="geometry" />
        </mxCell>
        <mxCell id="SHi3CykzPSjSsFWDdA-X-87" value="computer won" style="whiteSpace=wrap;html=1;rounded=1;fillColor=#f8cecc;strokeColor=#b85450;" vertex="1" parent="1">
          <mxGeometry x="787.5" y="1120" width="120" height="60" as="geometry" />
        </mxCell>
        <mxCell id="SHi3CykzPSjSsFWDdA-X-89" value="user won" style="whiteSpace=wrap;html=1;rounded=1;fillColor=#fff2cc;strokeColor=#d6b656;" vertex="1" parent="1">
          <mxGeometry x="412.5" y="1120" width="120" height="60" as="geometry" />
        </mxCell>
        <mxCell id="SHi3CykzPSjSsFWDdA-X-91" value="computer busted user won" style="whiteSpace=wrap;html=1;rounded=1;fillColor=#fff2cc;strokeColor=#d6b656;" vertex="1" parent="1">
          <mxGeometry x="412.5" y="700" width="120" height="60" as="geometry" />
        </mxCell>
        <mxCell id="SHi3CykzPSjSsFWDdA-X-93" value="&lt;b&gt;&lt;font style=&quot;font-size: 15px;&quot;&gt;&lt;sub&gt;Yes&lt;/sub&gt;&lt;/font&gt;&lt;/b&gt;" style="text;html=1;strokeColor=none;fillColor=none;align=center;verticalAlign=middle;whiteSpace=wrap;rounded=1;" vertex="1" parent="1">
          <mxGeometry x="717.5" y="920" width="60" height="30" as="geometry" />
        </mxCell>
        <mxCell id="SHi3CykzPSjSsFWDdA-X-94" value="&lt;b&gt;&lt;font style=&quot;font-size: 15px;&quot;&gt;&lt;sub&gt;Yes&lt;/sub&gt;&lt;/font&gt;&lt;/b&gt;" style="text;html=1;strokeColor=none;fillColor=none;align=center;verticalAlign=middle;whiteSpace=wrap;rounded=1;" vertex="1" parent="1">
          <mxGeometry x="717.5" y="1120" width="60" height="30" as="geometry" />
        </mxCell>
        <mxCell id="SHi3CykzPSjSsFWDdA-X-95" value="&lt;b&gt;&lt;font style=&quot;font-size: 15px;&quot;&gt;&lt;sub&gt;No&lt;/sub&gt;&lt;/font&gt;&lt;/b&gt;" style="text;html=1;strokeColor=none;fillColor=none;align=center;verticalAlign=middle;whiteSpace=wrap;rounded=1;" vertex="1" parent="1">
          <mxGeometry x="630" y="660" width="60" height="30" as="geometry" />
        </mxCell>
        <mxCell id="SHi3CykzPSjSsFWDdA-X-96" value="&lt;b&gt;&lt;font style=&quot;font-size: 15px;&quot;&gt;&lt;sub&gt;No&lt;/sub&gt;&lt;/font&gt;&lt;/b&gt;" style="text;html=1;strokeColor=none;fillColor=none;align=center;verticalAlign=middle;whiteSpace=wrap;rounded=1;" vertex="1" parent="1">
          <mxGeometry x="647.5" y="760" width="60" height="30" as="geometry" />
        </mxCell>
        <mxCell id="SHi3CykzPSjSsFWDdA-X-97" value="&lt;b&gt;&lt;font style=&quot;font-size: 15px;&quot;&gt;&lt;sub&gt;No&lt;/sub&gt;&lt;/font&gt;&lt;/b&gt;" style="text;html=1;strokeColor=none;fillColor=none;align=center;verticalAlign=middle;whiteSpace=wrap;rounded=1;" vertex="1" parent="1">
          <mxGeometry x="647.5" y="870" width="60" height="30" as="geometry" />
        </mxCell>
        <mxCell id="SHi3CykzPSjSsFWDdA-X-98" value="&lt;b&gt;&lt;font style=&quot;font-size: 15px;&quot;&gt;&lt;sub&gt;No&lt;/sub&gt;&lt;/font&gt;&lt;/b&gt;" style="text;html=1;strokeColor=none;fillColor=none;align=center;verticalAlign=middle;whiteSpace=wrap;rounded=1;" vertex="1" parent="1">
          <mxGeometry x="647.5" y="990" width="60" height="30" as="geometry" />
        </mxCell>
        <mxCell id="SHi3CykzPSjSsFWDdA-X-99" value="&lt;b&gt;&lt;font style=&quot;font-size: 15px;&quot;&gt;&lt;sub&gt;No&lt;/sub&gt;&lt;/font&gt;&lt;/b&gt;" style="text;html=1;strokeColor=none;fillColor=none;align=center;verticalAlign=middle;whiteSpace=wrap;rounded=1;" vertex="1" parent="1">
          <mxGeometry x="647.5" y="1090" width="60" height="30" as="geometry" />
        </mxCell>
        <mxCell id="SHi3CykzPSjSsFWDdA-X-100" value="&lt;b&gt;&lt;font style=&quot;font-size: 15px;&quot;&gt;&lt;sub&gt;No&lt;/sub&gt;&lt;/font&gt;&lt;/b&gt;" style="text;html=1;strokeColor=none;fillColor=none;align=center;verticalAlign=middle;whiteSpace=wrap;rounded=1;" vertex="1" parent="1">
          <mxGeometry x="527.5" y="1120" width="60" height="30" as="geometry" />
        </mxCell>
        <mxCell id="SHi3CykzPSjSsFWDdA-X-101" value="&lt;b&gt;&lt;font style=&quot;font-size: 15px;&quot;&gt;&lt;sub&gt;Yes&lt;/sub&gt;&lt;/font&gt;&lt;/b&gt;" style="text;html=1;strokeColor=none;fillColor=none;align=center;verticalAlign=middle;whiteSpace=wrap;rounded=1;" vertex="1" parent="1">
          <mxGeometry x="537.5" y="790" width="60" height="30" as="geometry" />
        </mxCell>
        <mxCell id="SHi3CykzPSjSsFWDdA-X-102" value="&lt;b&gt;&lt;font style=&quot;font-size: 15px;&quot;&gt;&lt;sub&gt;Yes&lt;/sub&gt;&lt;/font&gt;&lt;/b&gt;" style="text;html=1;strokeColor=none;fillColor=none;align=center;verticalAlign=middle;whiteSpace=wrap;rounded=1;" vertex="1" parent="1">
          <mxGeometry x="532.5" y="700" width="60" height="30" as="geometry" />
        </mxCell>
        <mxCell id="SHi3CykzPSjSsFWDdA-X-107" style="edgeStyle=orthogonalEdgeStyle;curved=1;rounded=1;orthogonalLoop=1;jettySize=auto;html=1;entryX=0.5;entryY=0;entryDx=0;entryDy=0;" edge="1" parent="1" source="SHi3CykzPSjSsFWDdA-X-104" target="SHi3CykzPSjSsFWDdA-X-19">
          <mxGeometry relative="1" as="geometry" />
        </mxCell>
        <mxCell id="SHi3CykzPSjSsFWDdA-X-104" value="add 2 card to computer" style="whiteSpace=wrap;html=1;fillColor=#e1d5e7;strokeColor=#9673a6;rounded=1;" vertex="1" parent="1">
          <mxGeometry x="960" y="350" width="120" height="60" as="geometry" />
        </mxCell>
        <mxCell id="SHi3CykzPSjSsFWDdA-X-114" style="edgeStyle=orthogonalEdgeStyle;curved=1;rounded=1;orthogonalLoop=1;jettySize=auto;html=1;entryX=1;entryY=0.5;entryDx=0;entryDy=0;exitX=0.5;exitY=1;exitDx=0;exitDy=0;" edge="1" parent="1" source="SHi3CykzPSjSsFWDdA-X-17" target="SHi3CykzPSjSsFWDdA-X-13">
          <mxGeometry relative="1" as="geometry">
            <mxPoint x="1080" y="800.0588235294119" as="sourcePoint" />
            <Array as="points">
              <mxPoint x="1020" y="800" />
              <mxPoint x="1440" y="800" />
              <mxPoint x="1440" y="645" />
            </Array>
          </mxGeometry>
        </mxCell>
        <mxCell id="SHi3CykzPSjSsFWDdA-X-119" style="edgeStyle=orthogonalEdgeStyle;curved=1;rounded=1;orthogonalLoop=1;jettySize=auto;html=1;entryX=0;entryY=0.5;entryDx=0;entryDy=0;" edge="1" parent="1" source="SHi3CykzPSjSsFWDdA-X-116" target="SHi3CykzPSjSsFWDdA-X-19">
          <mxGeometry relative="1" as="geometry">
            <Array as="points">
              <mxPoint x="920" y="650" />
              <mxPoint x="920" y="480" />
            </Array>
          </mxGeometry>
        </mxCell>
        <mxCell id="SHi3CykzPSjSsFWDdA-X-116" value="check if user card is 21" style="whiteSpace=wrap;html=1;fillColor=#dae8fc;strokeColor=#6c8ebf;rounded=1;" vertex="1" parent="1">
          <mxGeometry x="587.5" y="600" width="120" height="60" as="geometry" />
        </mxCell>
        <mxCell id="SHi3CykzPSjSsFWDdA-X-118" value="" style="edgeStyle=orthogonalEdgeStyle;curved=1;rounded=1;orthogonalLoop=1;jettySize=auto;html=1;endArrow=none;" edge="1" parent="1" source="SHi3CykzPSjSsFWDdA-X-31" target="SHi3CykzPSjSsFWDdA-X-116">
          <mxGeometry relative="1" as="geometry">
            <mxPoint x="739.9999999999998" y="585" as="sourcePoint" />
            <mxPoint x="647.4705882352941" y="700" as="targetPoint" />
          </mxGeometry>
        </mxCell>
      </root>
    </mxGraphModel>
  </diagram>
  <diagram id="ThXzucjT3A-7pzlHavJ5" name="Page-2">
    <mxGraphModel dx="2015" dy="1164" grid="1" gridSize="10" guides="1" tooltips="1" connect="1" arrows="1" fold="1" page="1" pageScale="1" pageWidth="850" pageHeight="1100" math="0" shadow="0">
      <root>
        <mxCell id="0" />
        <mxCell id="1" parent="0" />
      </root>
    </mxGraphModel>
  </diagram>
</mxfile>
